<mxfile host="app.diagrams.net" modified="2020-05-13T16:40:14.397Z" agent="5.0 (Windows NT 10.0; Win64; x64) AppleWebKit/537.36 (KHTML, like Gecko) Chrome/81.0.4044.138 Safari/537.36" etag="boh3kqpH9ky15BDV98IQ" version="13.1.1" type="github">
  <diagram id="xSwQsNHX_a4bN7xJ4ANp" name="Page-1">
    <mxGraphModel dx="1422" dy="762" grid="1" gridSize="10" guides="1" tooltips="1" connect="1" arrows="1" fold="1" page="1" pageScale="1" pageWidth="827" pageHeight="1169" math="0" shadow="0">
      <root>
        <mxCell id="0" />
        <mxCell id="1" parent="0" />
        <mxCell id="nG0uS29rBAO2VkAjnScJ-1" value="" style="dashed=0;outlineConnect=0;html=1;align=center;labelPosition=center;verticalLabelPosition=bottom;verticalAlign=top;shape=mxgraph.weblogos.github" parent="1" vertex="1">
          <mxGeometry x="37.5" y="421.33" width="75" height="75" as="geometry" />
        </mxCell>
        <mxCell id="nG0uS29rBAO2VkAjnScJ-2" value="" style="rounded=1;whiteSpace=wrap;html=1;" parent="1" vertex="1">
          <mxGeometry x="200" y="40" width="400" height="240" as="geometry" />
        </mxCell>
        <mxCell id="nG0uS29rBAO2VkAjnScJ-10" value="WatchNext talk" style="outlineConnect=0;fontColor=#232F3E;gradientColor=none;strokeColor=#232F3E;fillColor=#ffffff;dashed=0;verticalLabelPosition=bottom;verticalAlign=top;align=center;html=1;fontSize=12;fontStyle=0;aspect=fixed;shape=mxgraph.aws4.resourceIcon;resIcon=mxgraph.aws4.lambda_function;" parent="1" vertex="1">
          <mxGeometry x="228.09" y="165" width="60" height="60" as="geometry" />
        </mxCell>
        <mxCell id="nG0uS29rBAO2VkAjnScJ-17" value="Find talk" style="outlineConnect=0;fontColor=#232F3E;gradientColor=none;strokeColor=#232F3E;fillColor=#ffffff;dashed=0;verticalLabelPosition=bottom;verticalAlign=top;align=center;html=1;fontSize=12;fontStyle=0;aspect=fixed;shape=mxgraph.aws4.resourceIcon;resIcon=mxgraph.aws4.lambda_function;" parent="1" vertex="1">
          <mxGeometry x="369.99999999999994" y="166.5" width="60" height="60" as="geometry" />
        </mxCell>
        <mxCell id="nG0uS29rBAO2VkAjnScJ-20" value="" style="shape=image;html=1;verticalAlign=top;verticalLabelPosition=bottom;labelBackgroundColor=#ffffff;imageAspect=0;aspect=fixed;image=https://cdn2.iconfinder.com/data/icons/freecns-cumulus/16/519964-027_Smartphone-128.png" parent="1" vertex="1">
          <mxGeometry x="830" y="120" width="128" height="128" as="geometry" />
        </mxCell>
        <mxCell id="nG0uS29rBAO2VkAjnScJ-22" value="" style="outlineConnect=0;dashed=0;verticalLabelPosition=bottom;verticalAlign=top;align=center;html=1;shape=mxgraph.aws3.api_gateway;fillColor=#D9A741;gradientColor=none;" parent="1" vertex="1">
          <mxGeometry x="640" y="113.5" width="76.5" height="93" as="geometry" />
        </mxCell>
        <mxCell id="nG0uS29rBAO2VkAjnScJ-23" value="" style="endArrow=classic;startArrow=classic;html=1;entryX=0;entryY=0.391;entryDx=0;entryDy=0;entryPerimeter=0;" parent="1" target="nG0uS29rBAO2VkAjnScJ-20" edge="1">
          <mxGeometry width="50" height="50" relative="1" as="geometry">
            <mxPoint x="740" y="170" as="sourcePoint" />
            <mxPoint x="670" y="270" as="targetPoint" />
          </mxGeometry>
        </mxCell>
        <mxCell id="nG0uS29rBAO2VkAjnScJ-24" value="" style="endArrow=classic;startArrow=classic;html=1;" parent="1" edge="1">
          <mxGeometry width="50" height="50" relative="1" as="geometry">
            <mxPoint x="890" y="330" as="sourcePoint" />
            <mxPoint x="890" y="260" as="targetPoint" />
          </mxGeometry>
        </mxCell>
        <mxCell id="nG0uS29rBAO2VkAjnScJ-25" value="" style="pointerEvents=1;shadow=0;dashed=0;html=1;strokeColor=none;labelPosition=center;verticalLabelPosition=bottom;verticalAlign=top;align=center;fillColor=#505050;shape=mxgraph.mscae.intune.user_group" parent="1" vertex="1">
          <mxGeometry x="869" y="340" width="50" height="37" as="geometry" />
        </mxCell>
        <mxCell id="nG0uS29rBAO2VkAjnScJ-27" value="" style="endArrow=classic;html=1;entryX=0.5;entryY=0;entryDx=0;entryDy=0;" parent="1" target="nG0uS29rBAO2VkAjnScJ-29" edge="1">
          <mxGeometry width="50" height="50" relative="1" as="geometry">
            <mxPoint x="258" y="280" as="sourcePoint" />
            <mxPoint x="253" y="340" as="targetPoint" />
          </mxGeometry>
        </mxCell>
        <mxCell id="nG0uS29rBAO2VkAjnScJ-29" value="" style="shape=datastore;whiteSpace=wrap;html=1;" parent="1" vertex="1">
          <mxGeometry x="228.09" y="347" width="60" height="60" as="geometry" />
        </mxCell>
        <mxCell id="nG0uS29rBAO2VkAjnScJ-32" value="" style="shape=datastore;whiteSpace=wrap;html=1;" parent="1" vertex="1">
          <mxGeometry x="470" y="347" width="60" height="60" as="geometry" />
        </mxCell>
        <mxCell id="nG0uS29rBAO2VkAjnScJ-36" value="" style="verticalLabelPosition=bottom;html=1;verticalAlign=top;strokeWidth=1;align=center;outlineConnect=0;dashed=0;outlineConnect=0;shape=mxgraph.aws3d.file;aspect=fixed;strokeColor=#292929;" parent="1" vertex="1">
          <mxGeometry x="236.51" y="481" width="26.18" height="60" as="geometry" />
        </mxCell>
        <mxCell id="nG0uS29rBAO2VkAjnScJ-37" value="" style="verticalLabelPosition=bottom;html=1;verticalAlign=top;strokeWidth=1;align=center;outlineConnect=0;dashed=0;outlineConnect=0;shape=mxgraph.aws3d.file;aspect=fixed;strokeColor=#292929;" parent="1" vertex="1">
          <mxGeometry x="242.69" y="493.5" width="30.8" height="70.6" as="geometry" />
        </mxCell>
        <mxCell id="nG0uS29rBAO2VkAjnScJ-38" value="" style="verticalLabelPosition=bottom;html=1;verticalAlign=top;strokeWidth=1;align=center;outlineConnect=0;dashed=0;outlineConnect=0;shape=mxgraph.aws3d.file;aspect=fixed;strokeColor=#292929;" parent="1" vertex="1">
          <mxGeometry x="250" y="507.33" width="33.49" height="76.77" as="geometry" />
        </mxCell>
        <mxCell id="nG0uS29rBAO2VkAjnScJ-40" value="" style="endArrow=classic;html=1;entryX=0.5;entryY=1;entryDx=0;entryDy=0;exitX=0.562;exitY=0.106;exitDx=0;exitDy=0;exitPerimeter=0;" parent="1" source="nG0uS29rBAO2VkAjnScJ-37" target="nG0uS29rBAO2VkAjnScJ-29" edge="1">
          <mxGeometry width="50" height="50" relative="1" as="geometry">
            <mxPoint x="309" y="480" as="sourcePoint" />
            <mxPoint x="289" y="430" as="targetPoint" />
          </mxGeometry>
        </mxCell>
        <mxCell id="nG0uS29rBAO2VkAjnScJ-41" value="Data Lake&lt;br&gt;(Document Store)" style="text;html=1;strokeColor=none;fillColor=none;align=center;verticalAlign=middle;whiteSpace=wrap;rounded=0;" parent="1" vertex="1">
          <mxGeometry x="309" y="370" width="40" height="20" as="geometry" />
        </mxCell>
        <mxCell id="nG0uS29rBAO2VkAjnScJ-42" value="iTEDx&lt;br&gt;Users DataBase" style="text;html=1;strokeColor=none;fillColor=none;align=center;verticalAlign=middle;whiteSpace=wrap;rounded=0;" parent="1" vertex="1">
          <mxGeometry x="555" y="370" width="40" height="20" as="geometry" />
        </mxCell>
        <mxCell id="nG0uS29rBAO2VkAjnScJ-43" value="" style="endArrow=classic;startArrow=classic;html=1;entryX=0.75;entryY=1;entryDx=0;entryDy=0;" parent="1" source="nG0uS29rBAO2VkAjnScJ-32" target="nG0uS29rBAO2VkAjnScJ-2" edge="1">
          <mxGeometry width="50" height="50" relative="1" as="geometry">
            <mxPoint x="290" y="420" as="sourcePoint" />
            <mxPoint x="564" y="250" as="targetPoint" />
          </mxGeometry>
        </mxCell>
        <mxCell id="nG0uS29rBAO2VkAjnScJ-44" value="CI/CD" style="rounded=0;whiteSpace=wrap;html=1;" parent="1" vertex="1">
          <mxGeometry x="35" y="137.5" width="80" height="45" as="geometry" />
        </mxCell>
        <mxCell id="nG0uS29rBAO2VkAjnScJ-47" value="" style="endArrow=none;dashed=1;html=1;exitX=0.5;exitY=1;exitDx=0;exitDy=0;" parent="1" source="nG0uS29rBAO2VkAjnScJ-44" target="nG0uS29rBAO2VkAjnScJ-1" edge="1">
          <mxGeometry width="50" height="50" relative="1" as="geometry">
            <mxPoint x="60" y="800" as="sourcePoint" />
            <mxPoint x="110" y="750" as="targetPoint" />
          </mxGeometry>
        </mxCell>
        <mxCell id="nG0uS29rBAO2VkAjnScJ-48" value="" style="endArrow=none;dashed=1;html=1;entryX=0;entryY=0.5;entryDx=0;entryDy=0;exitX=1;exitY=0.5;exitDx=0;exitDy=0;" parent="1" source="nG0uS29rBAO2VkAjnScJ-44" target="nG0uS29rBAO2VkAjnScJ-2" edge="1">
          <mxGeometry width="50" height="50" relative="1" as="geometry">
            <mxPoint x="140" y="220" as="sourcePoint" />
            <mxPoint x="190" y="170" as="targetPoint" />
          </mxGeometry>
        </mxCell>
        <mxCell id="nG0uS29rBAO2VkAjnScJ-51" value="" style="endArrow=classic;html=1;entryX=0.5;entryY=1;entryDx=0;entryDy=0;" parent="1" target="nG0uS29rBAO2VkAjnScJ-44" edge="1">
          <mxGeometry width="50" height="50" relative="1" as="geometry">
            <mxPoint x="75" y="190" as="sourcePoint" />
            <mxPoint x="650" y="360" as="targetPoint" />
          </mxGeometry>
        </mxCell>
        <mxCell id="nG0uS29rBAO2VkAjnScJ-52" value="" style="endArrow=classic;html=1;entryX=0;entryY=0.5;entryDx=0;entryDy=0;" parent="1" target="nG0uS29rBAO2VkAjnScJ-2" edge="1">
          <mxGeometry width="50" height="50" relative="1" as="geometry">
            <mxPoint x="190" y="160" as="sourcePoint" />
            <mxPoint x="690" y="320" as="targetPoint" />
          </mxGeometry>
        </mxCell>
        <mxCell id="CVi55QZ7pKu7Utjj4PKd-9" value="CSV Files&lt;br&gt;Talks&#39;s URL&amp;nbsp;&lt;br&gt;and&lt;br&gt;TED Media Uploader&lt;br&gt;Email&amp;nbsp;" style="text;html=1;align=center;verticalAlign=middle;resizable=0;points=[];autosize=1;" parent="1" vertex="1">
          <mxGeometry x="284" y="504.1" width="130" height="80" as="geometry" />
        </mxCell>
        <mxCell id="CVi55QZ7pKu7Utjj4PKd-11" value="Users Management&lt;br&gt;" style="outlineConnect=0;fontColor=#232F3E;gradientColor=none;strokeColor=#232F3E;fillColor=#ffffff;dashed=0;verticalLabelPosition=bottom;verticalAlign=top;align=center;html=1;fontSize=12;fontStyle=0;aspect=fixed;shape=mxgraph.aws4.resourceIcon;resIcon=mxgraph.aws4.lambda_function;" parent="1" vertex="1">
          <mxGeometry x="509.99999999999994" y="165" width="60" height="60" as="geometry" />
        </mxCell>
        <mxCell id="CVi55QZ7pKu7Utjj4PKd-18" value="Talks&amp;nbsp;&lt;br&gt;Updater" style="outlineConnect=0;fontColor=#232F3E;gradientColor=none;strokeColor=#232F3E;fillColor=#ffffff;dashed=0;verticalLabelPosition=bottom;verticalAlign=top;align=center;html=1;fontSize=12;fontStyle=0;aspect=fixed;shape=mxgraph.aws4.resourceIcon;resIcon=mxgraph.aws4.lambda_function;" parent="1" vertex="1">
          <mxGeometry x="236.73999999999995" y="60" width="60" height="60" as="geometry" />
        </mxCell>
        <mxCell id="CVi55QZ7pKu7Utjj4PKd-27" value="TED Media Uploader &lt;br&gt;Updater" style="outlineConnect=0;fontColor=#232F3E;gradientColor=none;strokeColor=#232F3E;fillColor=#ffffff;dashed=0;verticalLabelPosition=bottom;verticalAlign=top;align=center;html=1;fontSize=12;fontStyle=0;aspect=fixed;shape=mxgraph.aws4.resourceIcon;resIcon=mxgraph.aws4.lambda_function;" parent="1" vertex="1">
          <mxGeometry x="379.99999999999994" y="60" width="60" height="60" as="geometry" />
        </mxCell>
        <mxCell id="KkKmGwhI4ppq6R4ktAim-1" value="TED Media Uploader&lt;br&gt;Verification" style="outlineConnect=0;fontColor=#232F3E;gradientColor=none;strokeColor=#232F3E;fillColor=#ffffff;dashed=0;verticalLabelPosition=bottom;verticalAlign=top;align=center;html=1;fontSize=12;fontStyle=0;aspect=fixed;shape=mxgraph.aws4.resourceIcon;resIcon=mxgraph.aws4.lambda_function;" vertex="1" parent="1">
          <mxGeometry x="510" y="60" width="60" height="60" as="geometry" />
        </mxCell>
      </root>
    </mxGraphModel>
  </diagram>
</mxfile>
